<svg xmlns="http://www.w3.org/2000/svg" width="774" height="774" viewBox="0 0 774 774">
  <g fill="#9553C9" fill-rule="evenodd" transform="translate(154 131)">
    <g fill-rule="nonzero" transform="translate(116.02 96.212)">
      <path d="M96.2971607 29.0260352L29.0051689 29.0260352M96.2971607 58.005703L29.0051689 58.005703C12.7622743 58.005703 0 45.2546491 0 29.0260352 0 12.7974213 12.7622743.0463674684 29.0051689.0463674684L96.877264.0463674684C113.120159.0463674684 125.882433 12.7974213 125.882433 29.0260352 125.30233 44.6750558 112.540055 58.005703 96.2971607 58.005703z"/>
    </g>
    <g fill-rule="nonzero" transform="translate(53.926 245.191)">
      <path d="M158.3919 29.0028515L29.0288466 29.0028515M158.3919 57.9825192L29.0288466 57.9825192C12.785952 57.9825192.0236776889 45.2314654.0236776889 29.0028515.0236776889 12.7742375 12.785952.0231837342 29.0288466.0231837342L158.3919.0231837342C174.634794.0231837342 187.397069 12.7742375 187.397069 29.0028515 187.397069 45.2314654 174.634794 57.9825192 158.3919 57.9825192z"/>
    </g>
    <g fill-rule="nonzero" transform="translate(0 393.52)">
      <path d="M212.317836 29.0492189L29.0051689 29.0492189M212.317836 58.0288867L29.0051689 58.0288867C12.7622743 58.0288867 0 45.2778329 0 29.0492189 0 12.820605 12.7622743.0695512026 29.0051689.0695512026L212.89794.0695512026C229.140834.0695512026 241.903108 12.820605 241.903108 29.0492189 241.323005 45.2778329 228.560731 58.0288867 212.317836 58.0288867z"/>
    </g>
    <path d="M352.884967,0 L352.884967,0 L352.884967,7.10542736e-15 C379.361663,2.24173731e-15 401.588083,19.9423409 404.447922,46.2641326 C413.482631,129.419309 418,209.660516 418,286.987755 C418,363.039783 413.630395,438.927393 404.891186,514.650585 L404.891215,514.650588 C401.84261,541.066041 379.475758,561 352.884967,561 L352.884967,561 L352.884967,561 C330.543096,561 312.431432,542.888335 312.431432,520.546464 C312.431432,518.96 312.524756,517.374909 312.710921,515.799406 C321.425662,442.047074 325.783035,365.649313 325.783035,286.606122 C325.783035,206.348232 321.290708,125.931256 312.306055,45.3551948 L312.306022,45.3551985 C309.807063,22.9440659 325.94907,2.75044695 348.360202,0.25148821 C349.862639,0.0839586857 351.37322,2.77703543e-16 352.884967,0 Z"/>
  </g>
</svg>
