<svg xmlns="http://www.w3.org/2000/svg" width="2353" height="774" viewBox="0 0 2353 774">
  <g fill="none" fill-rule="evenodd">
    <g transform="translate(0 120)">
      <g fill-rule="nonzero" transform="translate(135.172 112.162)">
        <path fill="#9553C9" d="M112.193103,33.8378378 L33.7931034,33.8378378"/>
        <path fill="#FFF" fill-opacity=".95" d="M112.193103,67.6216216 L33.7931034,67.6216216 C14.8689655,67.6216216 0,52.7567568 0,33.8378378 C0,14.9189189 14.8689655,0.0540540541 33.7931034,0.0540540541 L112.868966,0.0540540541 C131.793103,0.0540540541 146.662069,14.9189189 146.662069,33.8378378 C145.986207,52.0810811 131.117241,67.6216216 112.193103,67.6216216 Z"/>
      </g>
      <g fill-rule="nonzero" transform="translate(62.828 285.838)">
        <path fill="#9553C9" d="M184.537931,33.8108108 L33.8206897,33.8108108"/>
        <path fill="#FFF" fill-opacity=".95" d="M184.537931,67.5945946 L33.8206897,67.5945946 C14.8965517,67.5945946 0.0275862069,52.7297297 0.0275862069,33.8108108 C0.0275862069,14.8918919 14.8965517,0.027027027 33.8206897,0.027027027 L184.537931,0.027027027 C203.462069,0.027027027 218.331034,14.8918919 218.331034,33.8108108 C218.331034,52.7297297 203.462069,67.5945946 184.537931,67.5945946 Z"/>
      </g>
      <g fill-rule="nonzero" transform="translate(0 458.757)">
        <path fill="#9553C9" d="M247.365517,33.8648649 L33.7931034,33.8648649"/>
        <path fill="#FFF" fill-opacity=".95" d="M247.365517,67.6486486 L33.7931034,67.6486486 C14.8689655,67.6486486 0,52.7837838 0,33.8648649 C0,14.9459459 14.8689655,0.0810810811 33.7931034,0.0810810811 L248.041379,0.0810810811 C266.965517,0.0810810811 281.834483,14.9459459 281.834483,33.8648649 C281.158621,52.7837838 266.289655,67.6486486 247.365517,67.6486486 Z"/>
      </g>
      <path fill="#FFF" fill-opacity=".95" d="M411.136314,0 L412.413854,0 L412.413854,5.60177611e-08 C442.52328,5.60177556e-08 467.802243,22.6722706 471.066174,52.6042649 C481.688725,150.018751 487,244.005084 487,334.563265 C487,423.838792 481.838115,512.919971 471.514346,601.806803 L471.514347,601.806803 C468.058863,631.558249 442.859754,654 412.908311,654 L411.136314,654 L411.136314,654 C385.104575,654 364.001682,632.897107 364.001682,606.865368 C364.001682,605.017765 364.110317,603.171759 364.327023,601.336908 C374.482758,515.348772 379.560617,426.275924 379.560617,334.118367 C379.560617,240.545393 374.325582,146.78692 363.855511,52.8429485 L363.855552,52.8429439 C360.945316,26.7305005 379.754422,3.20297017 405.866865,0.29273421 C407.616578,0.0977284081 409.375767,3.23407103e-16 411.136314,0 Z"/>
    </g>
    <path fill="#FFF" fill-opacity=".95" d="M628.4,518.8 L628.4,227.8 C628.4,220.999966 632.39996,215.300023 640.4,210.7 C648.40004,206.099977 657.199952,203.8 666.8,203.8 C677.200052,203.8 686.299961,206.099977 694.1,210.7 C701.900039,215.300023 705.8,220.999966 705.8,227.8 L705.8,331 L776.6,331 C782.60003,331 787.399982,333.799972 791,339.4 C794.600018,345.000028 796.4,351.599962 796.4,359.2 C796.4,366.800038 794.600018,373.399972 791,379 C787.399982,384.600028 782.60003,387.4 776.6,387.4 L705.8,387.4 L705.8,518.8 C705.8,530.400058 708.299975,538.599976 713.3,543.4 C718.300025,548.200024 726.999938,550.6 739.4,550.6 L762.8,550.6 C773.200052,550.6 781.299971,553.799968 787.1,560.2 C792.900029,566.600032 795.8,574.199956 795.8,583 C795.8,592.200046 792.900029,599.999968 787.1,606.4 C781.299971,612.800032 773.200052,616 762.8,616 L739.4,616 C665.39963,616 628.4,583.600324 628.4,518.8 Z M812.03,715.6 C812.03,693.999892 818.629934,683.2 831.83,683.2 C850.630094,683.2 869.129909,676.400068 887.33,662.8 C905.530091,649.199932 915.62999,626.600158 917.63,595 L814.43,374.2 C812.829992,370.19998 812.03,366.800014 812.03,364 C812.03,354.399952 817.929941,345.800038 829.73,338.2 C841.530059,330.599962 852.829946,326.8 863.63,326.8 C875.63006,326.8 883.029986,331.199956 885.83,340 L957.83,519.4 L1016.03,340 C1018.83001,331.199956 1025.62995,326.8 1036.43,326.8 C1046.83005,326.8 1058.22994,330.699961 1070.63,338.5 C1083.03006,346.300039 1089.23,355.19995 1089.23,365.2 C1089.23,368.400016 1088.63001,371.399986 1087.43,374.2 L999.83,598 L989.63,624.4 C984.829976,638.000068 981.330011,647.399974 979.13,652.6 C976.929989,657.800026 973.130027,665.899945 967.73,676.9 C962.329973,687.900055 957.530021,695.899975 953.33,700.9 C949.129979,705.900025 943.230038,712.099963 935.63,719.5 C928.029962,726.900037 920.330039,732.299983 912.53,735.7 C904.729961,739.100017 895.230056,742.099987 884.03,744.7 C872.829944,747.300013 860.630066,748.6 847.43,748.6 C835.829942,748.6 827.03003,746.400022 821.03,742 C815.02997,737.599978 812.03,728.800066 812.03,715.6 Z M1125.86,724 L1125.86,355 C1125.86,347.799964 1129.35997,342.000022 1136.36,337.6 C1143.36004,333.199978 1152.05995,331 1162.46,331 C1172.86005,331 1181.45997,333.199978 1188.26,337.6 C1195.06003,342.000022 1198.46,347.799964 1198.46,355 L1198.46,373 C1206.06004,360.199936 1216.95993,349.400044 1231.16,340.6 C1245.36007,331.799956 1261.45991,327.4 1279.46,327.4 C1309.46015,327.4 1334.8599,339.299881 1355.66,363.1 C1376.4601,386.900119 1386.86,415.599832 1386.86,449.2 L1386.86,498.4 C1386.86,530.800162 1376.26011,559.399876 1355.06,584.2 C1333.85989,609.000124 1309.46014,621.4 1281.86,621.4 C1264.65991,621.4 1248.76007,616.700047 1234.16,607.3 C1219.55993,597.899953 1209.26003,586.800064 1203.26,574 L1203.26,724 C1203.26,730.400032 1199.36004,736.099975 1191.56,741.1 C1183.75996,746.100025 1174.46005,748.6 1163.66,748.6 C1152.85995,748.6 1143.86004,746.100025 1136.66,741.1 C1129.45996,736.099975 1125.86,730.400032 1125.86,724 Z M1203.26,509.2 C1203.26,517.20004 1208.65995,526.599946 1219.46,537.4 C1230.26005,548.200054 1242.45993,553.6 1256.06,553.6 C1270.06007,553.6 1282.45995,547.900057 1293.26,536.5 C1304.06005,525.099943 1309.46,512.40007 1309.46,498.4 L1309.46,449.2 C1309.46,435.19993 1304.06005,422.700055 1293.26,411.7 C1282.45995,400.699945 1269.66007,395.2 1254.86,395.2 C1241.25993,395.2 1229.26005,400.19995 1218.86,410.2 C1208.45995,420.20005 1203.26,433.19992 1203.26,449.2 L1203.26,509.2 Z M1433.69,229.6 C1433.69,219.199948 1437.78996,210.300037 1445.99,202.9 C1454.19004,195.499963 1464.28994,191.8 1476.29,191.8 C1487.89006,191.8 1497.78996,195.499963 1505.99,202.9 C1514.19004,210.300037 1518.29,219.199948 1518.29,229.6 C1518.29,239.60005 1514.19004,248.399962 1505.99,256 C1497.78996,263.600038 1487.89006,267.4 1476.29,267.4 C1464.28994,267.4 1454.19004,263.600038 1445.99,256 C1437.78996,248.399962 1433.69,239.60005 1433.69,229.6 Z M1437.89,591.4 L1437.89,355 C1437.89,347.799964 1441.48996,342.000022 1448.69,337.6 C1455.89004,333.199978 1465.08994,331 1476.29,331 C1487.49006,331 1496.78996,333.199978 1504.19,337.6 C1511.59004,342.000022 1515.29,347.799964 1515.29,355 L1515.29,591.4 C1515.29,597.40003 1511.39004,602.999974 1503.59,608.2 C1495.78996,613.400026 1486.69005,616 1476.29,616 C1465.48995,616 1456.39004,613.500025 1448.99,608.5 C1441.58996,603.499975 1437.89,597.800032 1437.89,591.4 Z M1575.92,518.8 L1575.92,227.8 C1575.92,220.999966 1579.91996,215.300023 1587.92,210.7 C1595.92004,206.099977 1604.71995,203.8 1614.32,203.8 C1624.72005,203.8 1633.81996,206.099977 1641.62,210.7 C1649.42004,215.300023 1653.32,220.999966 1653.32,227.8 L1653.32,331 L1724.12,331 C1730.12003,331 1734.91998,333.799972 1738.52,339.4 C1742.12002,345.000028 1743.92,351.599962 1743.92,359.2 C1743.92,366.800038 1742.12002,373.399972 1738.52,379 C1734.91998,384.600028 1730.12003,387.4 1724.12,387.4 L1653.32,387.4 L1653.32,518.8 C1653.32,530.400058 1655.81998,538.599976 1660.82,543.4 C1665.82003,548.200024 1674.51994,550.6 1686.92,550.6 L1710.32,550.6 C1720.72005,550.6 1728.81997,553.799968 1734.62,560.2 C1740.42003,566.600032 1743.32,574.199956 1743.32,583 C1743.32,592.200046 1740.42003,599.999968 1734.62,606.4 C1728.81997,612.800032 1720.72005,616 1710.32,616 L1686.92,616 C1612.91963,616 1575.92,583.600324 1575.92,518.8 Z M1769.15,541.6 C1769.15,509.199838 1781.14988,486.400066 1805.15,473.2 C1829.15012,459.999934 1863.74977,453.4 1908.95,453.4 L1933.55,453.4 L1933.55,445.6 C1933.55,430.799926 1929.25004,417.900055 1920.65,406.9 C1912.04996,395.899945 1898.75009,390.4 1880.75,390.4 C1862.74991,390.4 1847.35006,393.499969 1834.55,399.7 C1821.74994,405.900031 1814.35001,409 1812.35,409 C1804.34996,409 1797.95002,405.00004 1793.15,397 C1788.34998,388.99996 1785.95,380.200048 1785.95,370.6 C1785.95,358.999942 1796.2499,348.900043 1816.85,340.3 C1837.4501,331.699957 1859.14989,327.4 1881.95,327.4 C1925.55022,327.4 1957.94989,338.499889 1979.15,360.7 C2000.35011,382.900111 2010.95,410.799832 2010.95,444.4 L2010.95,591.4 C2010.95,598.200034 2007.35004,603.999976 2000.15,608.8 C1992.94996,613.600024 1983.95005,616 1973.15,616 C1963.14995,616 1954.85003,613.600024 1948.25,608.8 C1941.64997,603.999976 1938.35,598.200034 1938.35,591.4 L1938.35,574 C1910.74986,605.600158 1880.35017,621.4 1847.15,621.4 C1824.34989,621.4 1805.65007,614.600068 1791.05,601 C1776.44993,587.399932 1769.15,567.60013 1769.15,541.6 Z M1846.55,531.4 C1846.55,542.200054 1849.44997,550.299973 1855.25,555.7 C1861.05003,561.100027 1868.74995,563.8 1878.35,563.8 C1891.15006,563.8 1903.54994,557.80006 1915.55,545.8 C1927.55006,533.79994 1933.55,520.600072 1933.55,506.2 L1933.55,493.6 L1924.55,493.6 C1900.14988,493.6 1881.05007,496.099975 1867.25,501.1 C1853.44993,506.100025 1846.55,516.199924 1846.55,531.4 Z M2070.38,724 L2070.38,355 C2070.38,347.799964 2073.87997,342.000022 2080.88,337.6 C2087.88004,333.199978 2096.57995,331 2106.98,331 C2117.38005,331 2125.97997,333.199978 2132.78,337.6 C2139.58003,342.000022 2142.98,347.799964 2142.98,355 L2142.98,373 C2150.58004,360.199936 2161.47993,349.400044 2175.68,340.6 C2189.88007,331.799956 2205.97991,327.4 2223.98,327.4 C2253.98015,327.4 2279.3799,339.299881 2300.18,363.1 C2320.9801,386.900119 2331.38,415.599832 2331.38,449.2 L2331.38,498.4 C2331.38,530.800162 2320.78011,559.399876 2299.58,584.2 C2278.37989,609.000124 2253.98014,621.4 2226.38,621.4 C2209.17991,621.4 2193.28007,616.700047 2178.68,607.3 C2164.07993,597.899953 2153.78003,586.800064 2147.78,574 L2147.78,724 C2147.78,730.400032 2143.88004,736.099975 2136.08,741.1 C2128.27996,746.100025 2118.98005,748.6 2108.18,748.6 C2097.37995,748.6 2088.38004,746.100025 2081.18,741.1 C2073.97996,736.099975 2070.38,730.400032 2070.38,724 Z M2147.78,509.2 C2147.78,517.20004 2153.17995,526.599946 2163.98,537.4 C2174.78005,548.200054 2186.97993,553.6 2200.58,553.6 C2214.58007,553.6 2226.97995,547.900057 2237.78,536.5 C2248.58005,525.099943 2253.98,512.40007 2253.98,498.4 L2253.98,449.2 C2253.98,435.19993 2248.58005,422.700055 2237.78,411.7 C2226.97995,400.699945 2214.18007,395.2 2199.38,395.2 C2185.77993,395.2 2173.78005,400.19995 2163.38,410.2 C2152.97995,420.20005 2147.78,433.19992 2147.78,449.2 L2147.78,509.2 Z"/>
  </g>
</svg>
