<svg xmlns="http://www.w3.org/2000/svg" width="30" height="30" viewBox="0 0 30 30">
  <g fill="none" fill-rule="evenodd">
    <circle cx="15" cy="15" r="13" fill="#8CBCF3" stroke="#5BA1F1" stroke-width="4"/>
    <path fill="#FFF" d="M19.2857254 9.03905659C19.2857254 8.87164567 19.1071537 8.80468131 18.973225 8.78235985L16.1718824 8.37499329 14.9163005 5.83592777C14.8660772 5.72990086 14.771211 5.60713285 14.6428627 5.60713285 14.5145143 5.60713285 14.4196481 5.72990086 14.3694249 5.83592777L13.113843 8.37499329 10.3125004 8.78235985C10.1729913 8.80468131 10 8.87164567 10 9.03905659 10 9.13950313 10.0725447 9.23436932 10.1395091 9.30691405L12.1707615 11.2823628 11.6908502 14.0725447C11.6852699 14.1116073 11.6796895 14.1450895 11.6796895 14.184152 11.6796895 14.3292415 11.7522342 14.4631702 11.9140648 14.4631702 11.9921899 14.4631702 12.0647346 14.4352684 12.1372793 14.3962058L14.6428627 13.07924 17.148446 14.3962058C17.2154104 14.4352684 17.2935355 14.4631702 17.3716606 14.4631702 17.5334911 14.4631702 17.6004555 14.3292415 17.6004555 14.184152 17.6004555 14.1450895 17.6004555 14.1116073 17.5948751 14.0725447L17.1149638 11.2823628 19.1406359 9.30691405C19.2131806 9.23436932 19.2857254 9.13950313 19.2857254 9.03905659zM14.2857254 17.0390566C14.2857254 16.8716457 14.1071537 16.8046813 13.973225 16.7823599L11.1718824 16.3749933 9.9163005 13.8359278C9.86607723 13.7299009 9.77121104 13.6071329 9.64286268 13.6071329 9.51451431 13.6071329 9.41964813 13.7299009 9.36942485 13.8359278L8.113843 16.3749933 5.31250037 16.7823599C5.17299128 16.8046813 5 16.8716457 5 17.0390566 5 17.1395031 5.07254473 17.2343693 5.13950909 17.306914L7.17076152 19.2823628 6.69085023 22.0725447C6.68526987 22.1116073 6.6796895 22.1450895 6.6796895 22.184152 6.6796895 22.3292415 6.75223423 22.4631702 6.91406478 22.4631702 6.99218987 22.4631702 7.0647346 22.4352684 7.13727933 22.3962058L9.64286268 21.07924 12.148446 22.3962058C12.2154104 22.4352684 12.2935355 22.4631702 12.3716606 22.4631702 12.5334911 22.4631702 12.6004555 22.3292415 12.6004555 22.184152 12.6004555 22.1450895 12.6004555 22.1116073 12.5948751 22.0725447L12.1149638 19.2823628 14.1406359 17.306914C14.2131806 17.2343693 14.2857254 17.1395031 14.2857254 17.0390566zM24.2857254 17.0390566C24.2857254 16.8716457 24.1071537 16.8046813 23.973225 16.7823599L21.1718824 16.3749933 19.9163005 13.8359278C19.8660772 13.7299009 19.771211 13.6071329 19.6428627 13.6071329 19.5145143 13.6071329 19.4196481 13.7299009 19.3694249 13.8359278L18.113843 16.3749933 15.3125004 16.7823599C15.1729913 16.8046813 15 16.8716457 15 17.0390566 15 17.1395031 15.0725447 17.2343693 15.1395091 17.306914L17.1707615 19.2823628 16.6908502 22.0725447C16.6852699 22.1116073 16.6796895 22.1450895 16.6796895 22.184152 16.6796895 22.3292415 16.7522342 22.4631702 16.9140648 22.4631702 16.9921899 22.4631702 17.0647346 22.4352684 17.1372793 22.3962058L19.6428627 21.07924 22.148446 22.3962058C22.2154104 22.4352684 22.2935355 22.4631702 22.3716606 22.4631702 22.5334911 22.4631702 22.6004555 22.3292415 22.6004555 22.184152 22.6004555 22.1450895 22.6004555 22.1116073 22.5948751 22.0725447L22.1149638 19.2823628 24.1406359 17.306914C24.2131806 17.2343693 24.2857254 17.1395031 24.2857254 17.0390566z"/>
  </g>
</svg>
