<svg xmlns="http://www.w3.org/2000/svg" width="30" height="30" viewBox="0 0 30 30">
  <g fill="none" fill-rule="evenodd">
    <circle cx="15" cy="15" r="13" fill="#B7B7B7" stroke="#999" stroke-width="4"/>
    <path fill="#FFF" d="M19.2857254 9.03905659C19.2857254 8.87164567 19.1071537 8.80468131 18.973225 8.78235985L16.1718824 8.37499329 14.9163005 5.83592777C14.8660772 5.72990086 14.771211 5.60713285 14.6428627 5.60713285 14.5145143 5.60713285 14.4196481 5.72990086 14.3694249 5.83592777L13.113843 8.37499329 10.3125004 8.78235985C10.1729913 8.80468131 10 8.87164567 10 9.03905659 10 9.13950313 10.0725447 9.23436932 10.1395091 9.30691405L12.1707615 11.2823628 11.6908502 14.0725447C11.6852699 14.1116073 11.6796895 14.1450895 11.6796895 14.184152 11.6796895 14.3292415 11.7522342 14.4631702 11.9140648 14.4631702 11.9921899 14.4631702 12.0647346 14.4352684 12.1372793 14.3962058L14.6428627 13.07924 17.148446 14.3962058C17.2154104 14.4352684 17.2935355 14.4631702 17.3716606 14.4631702 17.5334911 14.4631702 17.6004555 14.3292415 17.6004555 14.184152 17.6004555 14.1450895 17.6004555 14.1116073 17.5948751 14.0725447L17.1149638 11.2823628 19.1406359 9.30691405C19.2131806 9.23436932 19.2857254 9.13950313 19.2857254 9.03905659zM19.2857254 19.0390566C19.2857254 18.8716457 19.1071537 18.8046813 18.973225 18.7823599L16.1718824 18.3749933 14.9163005 15.8359278C14.8660772 15.7299009 14.771211 15.6071329 14.6428627 15.6071329 14.5145143 15.6071329 14.4196481 15.7299009 14.3694249 15.8359278L13.113843 18.3749933 10.3125004 18.7823599C10.1729913 18.8046813 10 18.8716457 10 19.0390566 10 19.1395031 10.0725447 19.2343693 10.1395091 19.306914L12.1707615 21.2823628 11.6908502 24.0725447C11.6852699 24.1116073 11.6796895 24.1450895 11.6796895 24.184152 11.6796895 24.3292415 11.7522342 24.4631702 11.9140648 24.4631702 11.9921899 24.4631702 12.0647346 24.4352684 12.1372793 24.3962058L14.6428627 23.07924 17.148446 24.3962058C17.2154104 24.4352684 17.2935355 24.4631702 17.3716606 24.4631702 17.5334911 24.4631702 17.6004555 24.3292415 17.6004555 24.184152 17.6004555 24.1450895 17.6004555 24.1116073 17.5948751 24.0725447L17.1149638 21.2823628 19.1406359 19.306914C19.2131806 19.2343693 19.2857254 19.1395031 19.2857254 19.0390566z"/>
  </g>
</svg>
