<svg xmlns="http://www.w3.org/2000/svg" width="30" height="30" viewBox="0 0 30 30">
  <g fill="none" fill-rule="evenodd">
    <circle cx="15" cy="15" r="13" fill="#B7B7B7" stroke="#999" stroke-width="4"/>
    <path fill="#FFF" d="M18.973225,13.7823599 L16.1718824,13.3749933 L14.9163005,10.8359278 C14.8660772,10.7299009 14.771211,10.6071329 14.6428627,10.6071329 C14.5145143,10.6071329 14.4196481,10.7299009 14.3694249,10.8359278 L13.113843,13.3749933 L10.3125004,13.7823599 C10.1729913,13.8046813 10,13.8716457 10,14.0390566 C10,14.1395031 10.0725447,14.2343693 10.1395091,14.306914 L12.1707615,16.2823628 L11.6908502,19.0725447 C11.6852699,19.1116073 11.6796895,19.1450895 11.6796895,19.184152 C11.6796895,19.3292415 11.7522342,19.4631702 11.9140648,19.4631702 C11.9921899,19.4631702 12.0647346,19.4352684 12.1372793,19.3962058 L14.6428627,18.07924 L17.148446,19.3962058 C17.2154104,19.4352684 17.2935355,19.4631702 17.3716606,19.4631702 C17.5334911,19.4631702 17.6004555,19.3292415 17.6004555,19.184152 C17.6004555,19.1450895 17.6004555,19.1116073 17.5948751,19.0725447 L17.1149638,16.2823628 L19.1406359,14.306914 C19.2131806,14.2343693 19.1071537,13.8046813 18.973225,13.7823599 Z"/>
  </g>
</svg>
