<svg xmlns="http://www.w3.org/2000/svg" width="30" height="30" viewBox="0 0 30 30">
  <g fill="none" fill-rule="evenodd">
    <circle cx="15" cy="15" r="13" fill="#8CBCF3" stroke="#5BA1F1" stroke-width="4"/>
    <path fill="#FFF" d="M15.2857254,9.03905659 C15.2857254,8.87164567 15.1071537,8.80468131 14.973225,8.78235985 L12.1718824,8.37499329 L10.9163005,5.83592777 C10.8660772,5.72990086 10.771211,5.60713285 10.6428627,5.60713285 C10.5145143,5.60713285 10.4196481,5.72990086 10.3694249,5.83592777 L9.113843,8.37499329 L6.31250037,8.78235985 C6.17299128,8.80468131 6,8.87164567 6,9.03905659 C6,9.13950313 6.07254473,9.23436932 6.13950909,9.30691405 L8.17076152,11.2823628 L7.69085023,14.0725447 C7.68526987,14.1116073 7.6796895,14.1450895 7.6796895,14.184152 C7.6796895,14.3292415 7.75223423,14.4631702 7.91406478,14.4631702 C7.99218987,14.4631702 8.0647346,14.4352684 8.13727933,14.3962058 L10.6428627,13.07924 L13.148446,14.3962058 C13.2154104,14.4352684 13.2935355,14.4631702 13.3716606,14.4631702 C13.5334911,14.4631702 13.6004555,14.3292415 13.6004555,14.184152 C13.6004555,14.1450895 13.6004555,14.1116073 13.5948751,14.0725447 L13.1149638,11.2823628 L15.1406359,9.30691405 C15.2131806,9.23436932 15.2857254,9.13950313 15.2857254,9.03905659 Z"/>
    <path fill="#FFF" d="M23.2857254 9.03905659C23.2857254 8.87164567 23.1071537 8.80468131 22.973225 8.78235985L20.1718824 8.37499329 18.9163005 5.83592777C18.8660772 5.72990086 18.771211 5.60713285 18.6428627 5.60713285 18.5145143 5.60713285 18.4196481 5.72990086 18.3694249 5.83592777L17.113843 8.37499329 14.3125004 8.78235985C14.1729913 8.80468131 14 8.87164567 14 9.03905659 14 9.13950313 14.0725447 9.23436932 14.1395091 9.30691405L16.1707615 11.2823628 15.6908502 14.0725447C15.6852699 14.1116073 15.6796895 14.1450895 15.6796895 14.184152 15.6796895 14.3292415 15.7522342 14.4631702 15.9140648 14.4631702 15.9921899 14.4631702 16.0647346 14.4352684 16.1372793 14.3962058L18.6428627 13.07924 21.148446 14.3962058C21.2154104 14.4352684 21.2935355 14.4631702 21.3716606 14.4631702 21.5334911 14.4631702 21.6004555 14.3292415 21.6004555 14.184152 21.6004555 14.1450895 21.6004555 14.1116073 21.5948751 14.0725447L21.1149638 11.2823628 23.1406359 9.30691405C23.2131806 9.23436932 23.2857254 9.13950313 23.2857254 9.03905659zM15.2857254 18.0390566C15.2857254 17.8716457 15.1071537 17.8046813 14.973225 17.7823599L12.1718824 17.3749933 10.9163005 14.8359278C10.8660772 14.7299009 10.771211 14.6071329 10.6428627 14.6071329 10.5145143 14.6071329 10.4196481 14.7299009 10.3694249 14.8359278L9.113843 17.3749933 6.31250037 17.7823599C6.17299128 17.8046813 6 17.8716457 6 18.0390566 6 18.1395031 6.07254473 18.2343693 6.13950909 18.306914L8.17076152 20.2823628 7.69085023 23.0725447C7.68526987 23.1116073 7.6796895 23.1450895 7.6796895 23.184152 7.6796895 23.3292415 7.75223423 23.4631702 7.91406478 23.4631702 7.99218987 23.4631702 8.0647346 23.4352684 8.13727933 23.3962058L10.6428627 22.07924 13.148446 23.3962058C13.2154104 23.4352684 13.2935355 23.4631702 13.3716606 23.4631702 13.5334911 23.4631702 13.6004555 23.3292415 13.6004555 23.184152 13.6004555 23.1450895 13.6004555 23.1116073 13.5948751 23.0725447L13.1149638 20.2823628 15.1406359 18.306914C15.2131806 18.2343693 15.2857254 18.1395031 15.2857254 18.0390566z"/>
    <path fill="#FFF" d="M23.2857254,18.0390566 C23.2857254,17.8716457 23.1071537,17.8046813 22.973225,17.7823599 L20.1718824,17.3749933 L18.9163005,14.8359278 C18.8660772,14.7299009 18.771211,14.6071329 18.6428627,14.6071329 C18.5145143,14.6071329 18.4196481,14.7299009 18.3694249,14.8359278 L17.113843,17.3749933 L14.3125004,17.7823599 C14.1729913,17.8046813 14,17.8716457 14,18.0390566 C14,18.1395031 14.0725447,18.2343693 14.1395091,18.306914 L16.1707615,20.2823628 L15.6908502,23.0725447 C15.6852699,23.1116073 15.6796895,23.1450895 15.6796895,23.184152 C15.6796895,23.3292415 15.7522342,23.4631702 15.9140648,23.4631702 C15.9921899,23.4631702 16.0647346,23.4352684 16.1372793,23.3962058 L18.6428627,22.07924 L21.148446,23.3962058 C21.2154104,23.4352684 21.2935355,23.4631702 21.3716606,23.4631702 C21.5334911,23.4631702 21.6004555,23.3292415 21.6004555,23.184152 C21.6004555,23.1450895 21.6004555,23.1116073 21.5948751,23.0725447 L21.1149638,20.2823628 L23.1406359,18.306914 C23.2131806,18.2343693 23.2857254,18.1395031 23.2857254,18.0390566 Z"/>
  </g>
</svg>
